HIERARCHY
ROOT Root
{
  OFFSET 0.0 0.0 0.0
  CHANNELS 6 Xposition Yposition Zposition Zrotation Yrotation Xrotation
  JOINT Hips
  {
    OFFSET 0.0 100.0 0.0
    CHANNELS 6 Xposition Yposition Zposition Zrotation Yrotation Xrotation
    JOINT Spine1
    {
      OFFSET -0.013727 5.003763 -0.053727
      CHANNELS 3 Zrotation Yrotation Xrotation
      JOINT Spine2
      {
        OFFSET -0.0 7.125301 -0.029825
        CHANNELS 3 Zrotation Yrotation Xrotation
        JOINT Chest
        {
          OFFSET -1e-06 7.550063 -0.815971
          CHANNELS 3 Zrotation Yrotation Xrotation
          JOINT Neck1
          {
            OFFSET -0.181677 26.311295 -0.553348
            CHANNELS 3 Zrotation Yrotation Xrotation
            JOINT Neck2
            {
              OFFSET -3e-06 7.709397 2.302585
              CHANNELS 3 Zrotation Yrotation Xrotation
              JOINT Head
              {
                OFFSET -5e-06 6.128916 1.953709
                CHANNELS 3 Zrotation Yrotation Xrotation
                JOINT HeadEnd
                {
                  OFFSET 0.003598 16.065403 -1.835379
                  CHANNELS 3 Zrotation Yrotation Xrotation
                }
                JOINT Jaw
                {
                  OFFSET 0.002637 0.475592 3.094941
                  CHANNELS 3 Zrotation Yrotation Xrotation
                }
                JOINT LeftEye
                {
                  OFFSET 3.206381 5.380205 7.586883
                  CHANNELS 3 Zrotation Yrotation Xrotation
                }
                JOINT RightEye
                {
                  OFFSET -3.22244 5.361869 7.558234
                  CHANNELS 3 Zrotation Yrotation Xrotation
                }
              }
            }
          }
          JOINT LeftShoulder
          {
            OFFSET 1.621652 23.237164 5.113413
            CHANNELS 3 Zrotation Yrotation Xrotation
            JOINT LeftArm
            {
              OFFSET 14.919846 2e-06 -5.502326
              CHANNELS 3 Zrotation Yrotation Xrotation
              JOINT LeftForeArm
              {
                OFFSET 28.739307 0.0 -0.002588
                CHANNELS 3 Zrotation Yrotation Xrotation
                JOINT LeftHand
                {
                  OFFSET 27.093981 -1e-06 0.002609
                  CHANNELS 3 Zrotation Yrotation Xrotation
                  JOINT LeftHandThumb1
                  {
                    OFFSET 2.276482 -1.392045 3.191413
                    CHANNELS 3 Zrotation Yrotation Xrotation
                    JOINT LeftHandThumb2
                    {
                      OFFSET 4.012836 -1.828127 1.641654
                      CHANNELS 3 Zrotation Yrotation Xrotation
                      JOINT LeftHandThumb3
                      {
                        OFFSET 2.798515 0.0 -3e-06
                        CHANNELS 3 Zrotation Yrotation Xrotation
                        JOINT LeftHandThumbEnd
                        {
                          OFFSET 3.180793 -4e-06 4e-06
                          CHANNELS 3 Zrotation Yrotation Xrotation
                        }
                      }
                    }
                  }
                  JOINT LeftHandIndex1
                  {
                    OFFSET 3.247555 -0.531998 2.296169
                    CHANNELS 3 Zrotation Yrotation Xrotation
                    JOINT LeftHandIndex2
                    {
                      OFFSET 6.364578 0.01206 0.1786
                      CHANNELS 3 Zrotation Yrotation Xrotation
                      JOINT LeftHandIndex3
                      {
                        OFFSET 3.662364 0.0 0.0
                        CHANNELS 3 Zrotation Yrotation Xrotation
                        JOINT LeftHandIndex4
                        {
                          OFFSET 2.329242 4e-06 4e-06
                          CHANNELS 3 Zrotation Yrotation Xrotation
                          JOINT LeftHandIndexEnd
                          {
                            OFFSET 2.759615 -0.180537 -0.113024
                            CHANNELS 3 Zrotation Yrotation Xrotation
                          }
                        }
                      }
                    }
                  }
                  JOINT LeftHandMiddle1
                  {
                    OFFSET 3.163495 0.240981 1.000332
                    CHANNELS 3 Zrotation Yrotation Xrotation
                    JOINT LeftHandMiddle2
                    {
                      OFFSET 6.19078 -0.259278 -1.002548
                      CHANNELS 3 Zrotation Yrotation Xrotation
                      JOINT LeftHandMiddle3
                      {
                        OFFSET 4.35652 -4e-06 -1e-06
                        CHANNELS 3 Zrotation Yrotation Xrotation
                        JOINT LeftHandMiddle4
                        {
                          OFFSET 2.996877 -8e-06 0.0
                          CHANNELS 3 Zrotation Yrotation Xrotation
                          JOINT LeftHandMiddleEnd
                          {
                            OFFSET 2.304287 -0.294569 -0.031741
                            CHANNELS 3 Zrotation Yrotation Xrotation
                          }
                        }
                      }
                    }
                  }
                  JOINT LeftHandRing1
                  {
                    OFFSET 2.882643 -0.053652 -0.322543
                    CHANNELS 3 Zrotation Yrotation Xrotation
                    JOINT LeftHandRing2
                    {
                      OFFSET 5.854541 -0.486202 -1.373841
                      CHANNELS 3 Zrotation Yrotation Xrotation
                      JOINT LeftHandRing3
                      {
                        OFFSET 4.350578 0.0 3e-06
                        CHANNELS 3 Zrotation Yrotation Xrotation
                        JOINT LeftHandRing4
                        {
                          OFFSET 2.651321 7e-06 2e-06
                          CHANNELS 3 Zrotation Yrotation Xrotation
                          JOINT LeftHandRingEnd
                          {
                            OFFSET 1.936105 0.077687 -7.1e-05
                            CHANNELS 3 Zrotation Yrotation Xrotation
                          }
                        }
                      }
                    }
                  }
                  JOINT LeftHandPinky1
                  {
                    OFFSET 2.8655 -0.310005 -1.600378
                    CHANNELS 3 Zrotation Yrotation Xrotation
                    JOINT LeftHandPinky2
                    {
                      OFFSET 5.087849 -1.331141 -1.77123
                      CHANNELS 3 Zrotation Yrotation Xrotation
                      JOINT LeftHandPinky3
                      {
                        OFFSET 3.070974 4e-06 0.0
                        CHANNELS 3 Zrotation Yrotation Xrotation
                        JOINT LeftHandPinky4
                        {
                          OFFSET 1.549672 0.0 1e-06
                          CHANNELS 3 Zrotation Yrotation Xrotation
                          JOINT LeftHandPinkyEnd
                          {
                            OFFSET 1.944893 -0.157802 0.057219
                            CHANNELS 3 Zrotation Yrotation Xrotation
                          }
                        }
                      }
                    }
                  }
                }
              }
            }
          }
          JOINT RightShoulder
          {
            OFFSET -1.380118 23.180309 5.214158
            CHANNELS 3 Zrotation Yrotation Xrotation
            JOINT RightArm
            {
              OFFSET -15.037196 1.2e-05 -5.545604
              CHANNELS 3 Zrotation Yrotation Xrotation
              JOINT RightForeArm
              {
                OFFSET -28.736639 2e-06 -0.002597
                CHANNELS 3 Zrotation Yrotation Xrotation
                JOINT RightHand
                {
                  OFFSET -27.133619 -0.0 0.002613
                  CHANNELS 3 Zrotation Yrotation Xrotation
                  JOINT RightHandThumb1
                  {
                    OFFSET -2.274032 -1.383988 3.163127
                    CHANNELS 3 Zrotation Yrotation Xrotation
                    JOINT RightHandThumb2
                    {
                      OFFSET -4.011429 -1.827466 1.640914
                      CHANNELS 3 Zrotation Yrotation Xrotation
                      JOINT RightHandThumb3
                      {
                        OFFSET -2.794935 -4e-06 -3e-06
                        CHANNELS 3 Zrotation Yrotation Xrotation
                        JOINT RightHandThumbEnd
                        {
                          OFFSET -3.183852 4e-06 1e-06
                          CHANNELS 3 Zrotation Yrotation Xrotation
                        }
                      }
                    }
                  }
                  JOINT RightHandIndex1
                  {
                    OFFSET -3.253266 -0.520057 2.282866
                    CHANNELS 3 Zrotation Yrotation Xrotation
                    JOINT RightHandIndex2
                    {
                      OFFSET -6.341917 0.012471 0.178266
                      CHANNELS 3 Zrotation Yrotation Xrotation
                      JOINT RightHandIndex3
                      {
                        OFFSET -3.654871 -8e-06 -0.0
                        CHANNELS 3 Zrotation Yrotation Xrotation
                        JOINT RightHandIndex4
                        {
                          OFFSET -2.327586 0.0 1e-06
                          CHANNELS 3 Zrotation Yrotation Xrotation
                          JOINT RightHandIndexEnd
                          {
                            OFFSET -2.76179 -0.180656 -0.113078
                            CHANNELS 3 Zrotation Yrotation Xrotation
                          }
                        }
                      }
                    }
                  }
                  JOINT RightHandMiddle1
                  {
                    OFFSET -3.168106 0.246593 1.00103
                    CHANNELS 3 Zrotation Yrotation Xrotation
                    JOINT RightHandMiddle2
                    {
                      OFFSET -6.180828 -0.258836 -1.000895
                      CHANNELS 3 Zrotation Yrotation Xrotation
                      JOINT RightHandMiddle3
                      {
                        OFFSET -4.348901 0.0 -0.0
                        CHANNELS 3 Zrotation Yrotation Xrotation
                        JOINT RightHandMiddle4
                        {
                          OFFSET -3.00024 -4e-06 -2e-06
                          CHANNELS 3 Zrotation Yrotation Xrotation
                          JOINT RightHandMiddleEnd
                          {
                            OFFSET -2.30252 -0.29437 -0.031706
                            CHANNELS 3 Zrotation Yrotation Xrotation
                          }
                        }
                      }
                    }
                  }
                  JOINT RightHandRing1
                  {
                    OFFSET -2.88569 -0.067952 -0.308858
                    CHANNELS 3 Zrotation Yrotation Xrotation
                    JOINT RightHandRing2
                    {
                      OFFSET -5.854198 -0.48613 -1.373731
                      CHANNELS 3 Zrotation Yrotation Xrotation
                      JOINT RightHandRing3
                      {
                        OFFSET -4.33881 -4e-06 -0.0
                        CHANNELS 3 Zrotation Yrotation Xrotation
                        JOINT RightHandRing4
                        {
                          OFFSET -2.654903 -4e-06 4e-06
                          CHANNELS 3 Zrotation Yrotation Xrotation
                          JOINT RightHandRingEnd
                          {
                            OFFSET -1.933568 0.077527 -5.2e-05
                            CHANNELS 3 Zrotation Yrotation Xrotation
                          }
                        }
                      }
                    }
                  }
                  JOINT RightHandPinky1
                  {
                    OFFSET -2.866425 -0.342796 -1.584145
                    CHANNELS 3 Zrotation Yrotation Xrotation
                    JOINT RightHandPinky2
                    {
                      OFFSET -5.091371 -1.332055 -1.772385
                      CHANNELS 3 Zrotation Yrotation Xrotation
                      JOINT RightHandPinky3
                      {
                        OFFSET -3.062664 -4e-06 1e-06
                        CHANNELS 3 Zrotation Yrotation Xrotation
                        JOINT RightHandPinky4
                        {
                          OFFSET -1.546529 4e-06 -2e-06
                          CHANNELS 3 Zrotation Yrotation Xrotation
                          JOINT RightHandPinkyEnd
                          {
                            OFFSET -1.945119 -0.157718 0.057211
                            CHANNELS 3 Zrotation Yrotation Xrotation
                          }
                        }
                      }
                    }
                  }
                }
              }
            }
          }
        }
      }
    }
    JOINT LeftLeg
    {
      OFFSET 10.043214 -8.434526 2.595655
      CHANNELS 3 Zrotation Yrotation Xrotation
      JOINT LeftShin
      {
        OFFSET -1e-06 -43.221752 -0.802913
        CHANNELS 3 Zrotation Yrotation Xrotation
        JOINT LeftFoot
        {
          OFFSET 1e-06 -42.155094 -3.481523
          CHANNELS 3 Zrotation Yrotation Xrotation
          JOINT LeftToeBase
          {
            OFFSET 0.0 -5.059472 13.231529
            CHANNELS 3 Zrotation Yrotation Xrotation
            JOINT LeftToeEnd
            {
              OFFSET -0.009607 -1.647619 6.513017
              CHANNELS 3 Zrotation Yrotation Xrotation
            }
          }
        }
      }
    }
    JOINT RightLeg
    {
      OFFSET -10.047278 -8.29526 2.620317
      CHANNELS 3 Zrotation Yrotation Xrotation
      JOINT RightShin
      {
        OFFSET 1e-06 -43.362206 -0.805556
        CHANNELS 3 Zrotation Yrotation Xrotation
        JOINT RightFoot
        {
          OFFSET 2e-06 -42.117393 -3.478398
          CHANNELS 3 Zrotation Yrotation Xrotation
          JOINT RightToeBase
          {
            OFFSET -0.0 -5.079609 13.284196
            CHANNELS 3 Zrotation Yrotation Xrotation
            JOINT RightToeEnd
            {
              OFFSET 0.009532 -1.634378 6.460591
              CHANNELS 3 Zrotation Yrotation Xrotation
            }
          }
        }
      }
    }
  }
}
MOTION
Frames: 4
Frame Time: 0.03333333333333333
-2.745776 0.0 -37.272945 0.0 0.948844 0.0 0.0 56.532288 0.0 1.659268 1.824941 -42.04768 0.300113 -0.381284 15.154881 -0.348265 0.632537 2.444737 -1.720783 -0.816246 21.820789 -1.493564 3.496389 1.708321 -0.121085 1.607116 -3.473505 1.479579 1.366496 -10.168184 0.00031 7e-06 -0.001551 -0.02034 -0.03184 -0.082954 0.672772 -3.718849 -10.558243 -0.73383 3.641907 -10.539547 -14.496336 -4.233786 12.620852 -56.968479 -14.886469 17.569595 3.768862 -81.665253 -3.753811 14.681436 -0.437105 50.379593 -5.870599 9.905411 0.701536 -10.935473 -0.377084 7.137351 -0.011565 8.766492 0.001332 -16.044506 18.124405 6.015445 -1.845693 2.494433 -2.505981 -10.163239 4.671376 4.625307 -20.971056 -0.009882 0.000151 -21.246857 2.443705 -3.592707 -0.005244 0.00333 -0.003391 -1.367819 2.226277 -0.728942 -21.321905 0.589928 2.98397 -13.822348 -0.003373 0.0057 -23.888136 -0.246454 -0.848006 -60.68095 2.360263 -1.019851 -0.296661 1.662833 0.837955 -14.213952 0.102602 1.290317 -34.227077 -0.290164 0.962161 -20.038952 0.960042 1.213619 0.002124 0.001127 -0.002586 -3.445673 0.769538 0.506003 -15.925969 -3.157841 2.985616 -6.336771 0.003458 -0.000809 -18.112507 3.644605 -4.902633 -0.010592 0.010825 0.003327 12.409767 9.758382 16.977564 59.956711 13.158195 13.623178 -5.22809 85.143364 -4.994332 -3.494452 -1.893827 52.652054 2.236603 -5.307102 -3.204176 14.278727 -0.806096 6.919988 -0.006201 -12.679467 0.008287 15.453112 -17.928551 3.015281 1.674367 -1.949912 -2.871406 4.735717 -4.160849 4.988823 11.008312 -0.000679 -0.00431 12.110034 -3.732878 -2.852852 -0.01055 -0.002869 -0.003387 1.301029 -1.902416 -1.481079 14.793945 0.554588 3.845982 14.227314 -1.333868 -6.649926 19.644993 0.140524 -0.656302 49.608479 -0.42365 -6.416726 0.364019 -1.488841 -0.019628 20.214642 3.67926 2.298183 18.785101 -0.014256 -0.003515 10.726473 -0.472311 1.382347 -0.004497 0.000216 0.000661 3.271147 0.340869 -0.564093 21.483107 11.800373 2.234984 8.158248 0.006996 0.009385 18.377302 -3.803878 -4.946996 0.005552 -0.003413 0.006419 6.712625 13.384918 -44.737907 -0.272397 -0.102641 88.42524 -1.236742 -7.942903 1.964188 1.638755 -1.946096 0.239856 5e-06 -0.0013 0.000829 -6.270277 -15.942719 -44.877182 -0.560592 -0.340982 90.257095 -2.584277 5.14306 -3.278393 -1.415629 0.865504 0.047063 -0.000199 0.003088 0.006539 
-2.798473 0.0 -37.255444 0.0 0.9229 0.0 0.0 56.528618 0.0 1.680094 1.831851 -42.007298 0.302744 -0.367666 15.147474 -0.353998 0.613812 2.41949 -1.69831 -0.814484 21.866899 -1.530883 3.488094 1.696005 -0.110655 1.632695 -3.473468 1.492097 1.314709 -10.219535 0.001226 0.005185 -0.006576 -0.023964 -0.033758 -0.100844 0.668585 -3.726098 -10.571112 -0.736122 3.639623 -10.552608 -14.550574 -4.149717 12.615997 -56.987946 -14.912109 17.576618 3.554929 -81.659714 -3.580952 14.639329 -0.360492 50.327824 -5.874174 9.870397 0.659163 -10.951451 -0.369598 7.130579 -0.005012 8.773974 -7.7e-05 -15.965793 18.13208 6.016305 -1.841165 2.50329 -2.515298 -10.152563 4.676218 4.632491 -20.937141 0.000422 0.004802 -21.17292 2.451256 -3.592462 0.006549 -0.000138 -0.001233 -1.361222 2.238254 -0.742983 -21.297756 0.583281 3.010896 -13.810026 0.010004 0.001958 -23.83499 -0.251431 -0.820783 -60.55619 2.377314 -0.969463 -0.287428 1.681404 0.8415 -14.203898 0.085241 1.297258 -34.180496 -0.27769 0.969183 -20.018236 0.964058 1.214309 -0.004983 -0.004003 0.000496 -3.426247 0.778762 0.504026 -15.912642 -3.147166 3.008115 -6.346422 -0.006472 -0.003946 -18.120031 3.669588 -4.903752 -0.000806 -0.013048 -0.002095 12.471993 9.70147 16.727945 59.954971 13.124677 13.551651 -5.032091 85.268318 -4.801571 -3.474722 -1.837007 52.593174 2.248364 -5.231746 -3.163551 14.282531 -0.814261 6.939833 -0.005932 -12.689871 0.002658 15.483202 -17.934132 3.015498 1.666461 -1.946142 -2.878796 4.725323 -4.174721 4.995192 11.025469 -0.008164 0.003019 12.14955 -3.732546 -2.867861 0.007959 -0.005363 -0.005931 1.294104 -1.92613 -1.48722 14.800549 0.575812 3.848036 14.260049 -1.346759 -6.658654 19.650505 0.137249 -0.664469 49.621346 -0.41391 -6.441987 0.358766 -1.502972 -0.03067 20.22118 3.679481 2.307415 18.803232 -0.006231 -0.006958 10.734827 -0.50028 1.404943 0.009351 0.001213 -0.000824 3.284448 0.308667 -0.5918 21.488636 11.837934 2.274111 8.173063 -0.005023 -0.005777 18.389555 -3.788419 -4.945866 -0.003821 0.000359 0.005729 6.692048 13.36698 -44.812656 -0.27262 -0.110844 88.468849 -1.223855 -7.880594 2.042025 1.640217 -1.94728 0.275814 -0.001503 -0.000512 0.00144 -6.270586 -15.936155 -44.950474 -0.531196 -0.354708 90.294426 -2.557083 5.198881 -3.322487 -1.414511 0.870725 0.056042 -0.000805 -0.00368 -0.000656 
-2.775976 0.0 -37.223999 0.0 0.886942 0.0 0.0 56.542217 0.0 1.701669 1.83594 -41.966148 0.296194 -0.383168 15.170402 -0.345685 0.621678 2.444935 -1.687573 -0.81144 21.846022 -1.544898 3.473795 1.737696 -0.103882 1.683637 -3.467938 1.494986 1.310859 -10.282143 0.000758 -0.001867 0.006455 -0.022412 -0.042838 -0.069808 0.677008 -3.723416 -10.532571 -0.736257 3.633567 -10.508081 -14.586815 -4.153921 12.617486 -56.925117 -14.890142 17.631121 4.206594 -81.727234 -4.122842 14.64745 -0.372846 50.214504 -5.860882 9.854629 0.670607 -10.93899 -0.386481 7.123752 -0.004752 8.774264 -0.001647 -16.058218 18.152328 6.011421 -1.843504 2.505857 -2.508309 -10.160992 4.6889 4.622541 -20.986942 0.005913 -0.004789 -21.230574 2.456222 -3.597338 0.006234 -0.000952 0.001324 -1.362098 2.248986 -0.749719 -21.332693 0.596023 3.016167 -13.823959 0.003221 -0.00625 -23.891329 -0.236179 -0.856246 -60.793713 2.322171 -1.055308 -0.293849 1.692952 0.836313 -14.2157 0.090326 1.307875 -34.23436 -0.286565 0.946569 -20.03653 0.964679 1.210009 -0.005073 -0.004784 -0.000314 -3.445726 0.802775 0.499513 -15.921277 -3.155251 3.014174 -6.343183 -0.003486 -0.0049 -18.137962 3.648608 -4.921828 -0.001186 0.001976 0.000662 12.476151 9.724241 16.713497 59.883533 13.113373 13.456622 -4.294567 85.173874 -4.004885 -3.491907 -1.788388 52.490231 2.241996 -5.252064 -3.252795 14.307418 -0.779527 6.889246 -0.015064 -12.669483 -0.009784 15.464331 -17.904512 2.992907 1.659987 -1.948011 -2.878777 4.717538 -4.166816 5.004457 11.006538 -0.005364 0.007328 12.089287 -3.725742 -2.856599 0.009979 0.000464 0.005686 1.28037 -1.917241 -1.488646 14.800231 0.557727 3.86573 14.232699 -1.340454 -6.648747 19.601027 0.148554 -0.642029 49.516441 -0.45549 -6.429653 0.346218 -1.493975 -0.026955 20.20306 3.670781 2.326702 18.788548 4.7e-05 0.000458 10.734126 -0.477233 1.405161 -0.00166 0.003477 0.003148 3.252356 0.326753 -0.569162 21.486616 11.813468 2.262985 8.153989 -0.005118 0.006231 18.380833 -3.813125 -4.929538 0.000205 -0.006529 0.003579 6.680456 13.358357 -44.833149 -0.287082 -0.112628 88.458588 -1.192111 -7.784024 1.963035 1.640128 -1.957491 0.28691 0.000927 -0.000666 0.014355 -6.251106 -15.898695 -45.014351 -0.543769 -0.363092 90.302696 -2.535015 5.223034 -3.103849 -1.414125 0.86083 0.090734 -0.000832 0.001321 0.004631 
-2.791451 0.0 -37.188156 0.0 0.877289 0.0 0.0 56.589653 0.0 1.714489 1.841316 -41.926933 0.288246 -0.389941 15.182932 -0.349151 0.610626 2.431928 -1.656692 -0.789638 21.871845 -1.568773 3.469424 1.76738 -0.096637 1.695654 -3.467739 1.511266 1.282512 -10.325252 3e-06 -0.000361 -5.1e-05 -0.023258 -0.042589 -0.081423 0.668471 -3.728431 -10.532147 -0.734685 3.630786 -10.536668 -14.500216 -4.225019 12.597423 -57.033138 -14.898799 17.780403 4.684326 -81.667252 -4.642292 14.712646 -0.345421 50.260654 -5.853412 9.873059 0.74095 -10.934982 -0.353225 7.169528 -0.003512 8.775067 0.007068 -16.007797 18.11702 6.01941 -1.845372 2.503265 -2.505958 -10.162226 4.669831 4.610893 -20.958073 0.002602 -0.012298 -21.216999 2.452561 -3.594523 -0.001672 0.000818 0.001497 -1.359667 2.242912 -0.744445 -21.34066 0.578936 2.994871 -13.803792 0.001675 -0.006332 -23.859766 -0.248377 -0.843593 -60.650406 2.330665 -1.02331 -0.297301 1.674772 0.835829 -14.205677 0.094028 1.292711 -34.236687 -0.287378 0.944972 -20.049381 0.97023 1.201754 -0.002233 -0.006042 -0.001079 -3.437906 0.781065 0.497705 -15.926176 -3.154855 2.991371 -6.323352 0.006155 0.004592 -18.113956 3.658053 -4.912064 -0.011167 -0.00324 -0.001509 12.381939 9.776121 16.967569 59.985844 13.147125 13.514125 -4.481146 85.235062 -4.183459 -3.566871 -1.699629 52.464291 2.220055 -5.248092 -3.174366 14.269416 -0.833135 6.98984 -0.015584 -12.711329 0.015326 15.524846 -17.947071 2.994054 1.681777 -1.947055 -2.889773 4.719385 -4.169113 4.990916 11.023293 -0.006612 -0.003379 12.108558 -3.737479 -2.861845 0.009874 -0.00291 -0.002265 1.305597 -1.921068 -1.512095 14.811508 0.569498 3.858151 14.248131 -1.341176 -6.669702 19.639153 0.159639 -0.660434 49.601898 -0.42938 -6.456269 0.369423 -1.492415 -0.043066 20.217407 3.652863 2.300377 18.768793 0.028005 0.000285 10.752104 -0.489578 1.404076 -0.007374 -0.002868 -0.003063 3.304856 0.320493 -0.60687 21.473669 11.82215 2.261893 8.167686 0.006375 -0.003621 18.41301 -3.788213 -4.956271 -0.009537 -0.000709 0.011847 6.755744 13.310445 -44.812317 -0.276947 -0.094718 88.472191 -1.250685 -7.811 1.946829 1.638528 -1.949567 0.348954 0.001208 -0.000226 0.003028 -6.252465 -15.871642 -45.04076 -0.553277 -0.371049 90.279327 -2.535047 5.261777 -3.094396 -1.410517 0.844117 0.13273 -0.001883 -5e-05 -0.007284 
